<?xml version="1.0" encoding="utf-8"?>
<!-- Generator: Adobe Illustrator 16.0.0, SVG Export Plug-In . SVG Version: 6.00 Build 0)  -->
<!DOCTYPE svg PUBLIC "-//W3C//DTD SVG 1.1//EN" "http://www.w3.org/Graphics/SVG/1.1/DTD/svg11.dtd">
<svg version="1.1" id="Layer_1" xmlns="http://www.w3.org/2000/svg" xmlns:xlink="http://www.w3.org/1999/xlink" x="0px" y="115px"
	 width="48px" height="40px" viewBox="0 115 567 480" enable-background="new 0 115 566.93 480" xml:space="preserve">
<g id="Layer_3">
	
        <g fill="{{app.setting.color.accent}}">
    <path  d="M525.08,288.46L513,318.67c-2.125,4.893-6.25,9.1-11.5,9.1h-76.88L378.6,463.18
	c-1.558,4.403-4.35,10.508-10.04,10.54H296.6l49.61-145.95h-90.24l-20.16,61.9c-2.56,6.997-7.56,12.163-15.06,12.561h-67.62
	l24.28-74.461h-67.72l-21.72,63.98c-4.019,10.157-7.304,10.082-11.57,10.48H5.99l61.95-182.28c1.81-4.37,5.39-6.45,9.31-6.55h71.33
	l-25.52,75.06h67.17l51.7-158.64c0.945-2.882,4.195-7.382,10.69-7.56h70.36l-54.19,166.2H525.08z"/>
	

    </g>
	<g fill="{{app.setting.color.primary}}">
		<path  d="M515.88,238.7v8.5h-51.57c-2.01,5.38-7.199,9.21-13.27,9.21c-6.08,0-11.271-3.83-13.28-9.21
			H311.79v-8.5h125.52c1.561-6.12,7.12-10.64,13.73-10.64c6.6,0,12.16,4.52,13.72,10.64H515.88z"/>
	
		<path  d="M525.38,204.7v8.5h-85.57c-2.01,5.38-7.199,9.21-13.27,9.21c-6.08,0-11.271-3.83-13.28-9.21
			h-28.47c-2.01,5.38-7.19,9.21-13.271,9.21c-6.079,0-11.26-3.83-13.27-9.21h-36.96v-8.5h36.51c1.561-6.12,7.11-10.64,13.72-10.64
			c6.61,0,12.16,4.52,13.721,10.64h27.569c1.561-6.12,7.12-10.64,13.73-10.64c6.6,0,12.16,4.52,13.72,10.64H525.38z"/>
	
		<path  d="M537.87,170.97v8.5h-82.58c-2.01,5.37-7.19,9.2-13.271,9.2c-6.079,0-11.27-3.83-13.279-9.2
			h-41.48c-2.01,5.37-7.2,9.2-13.279,9.2c-6.08,0-11.261-3.83-13.271-9.2h-26.94v-8.5h26.49c1.561-6.12,7.11-10.64,13.721-10.64
			c6.609,0,12.17,4.52,13.729,10.64h40.58c1.56-6.12,7.12-10.64,13.729-10.64c6.61,0,12.16,4.52,13.721,10.64H537.87z"/>
	
		<path d="M548.38,138.2v8.5h-98.57c-2.01,5.38-7.199,9.21-13.27,9.21c-6.08,0-11.271-3.83-13.28-9.21
			h-7.47c-2.01,5.38-7.19,9.21-13.271,9.21c-6.079,0-11.26-3.83-13.27-9.21h-7.47c-2.011,5.38-7.2,9.21-13.28,9.21
			c-6.07,0-11.26-3.83-13.27-9.21h-10.94v-8.5h10.49c1.56-6.12,7.12-10.64,13.72-10.64c6.61,0,12.17,4.52,13.73,10.64h6.569
			c1.561-6.12,7.11-10.64,13.72-10.64c6.61,0,12.16,4.52,13.721,10.64h6.569c1.561-6.12,7.12-10.64,13.73-10.64
			c6.6,0,12.16,4.52,13.72,10.64H548.38z"/>
	</g>
		
</g>

</svg>